<svg version="1.1" xmlns="http://www.w3.org/2000/svg" xmlns:xlink="http://www.w3.org/1999/xlink" width="17.69819" height="15.40549" viewBox="0,0,17.69819,15.40549"><g transform="translate(-425.53752,-187.79725)"><g data-paper-data="{&quot;isPaintingLayer&quot;:true}" fill-rule="nonzero" stroke-linejoin="miter" stroke-miterlimit="10" stroke-dasharray="" stroke-dashoffset="0" style="mix-blend-mode: normal"><path d="M430.38935,188.34072l8.59115,14.31858" fill="none" stroke="#ffffff" stroke-width="1" stroke-linecap="round"/><path d="M438.48959,188.29725l-8.4446,14.40549" fill="none" stroke="#ffffff" stroke-width="1" stroke-linecap="round"/><path d="M442.73571,195.49794l-16.69819,0.00412" fill="none" stroke="#ffffff" stroke-width="1" stroke-linecap="round"/><path d="M439.69642,198.38009l-3.31853,0.55434l-1.93162,2.66734l-1.93404,-2.91256l-3.43543,-0.18979l1.27684,-3.36599l-0.68024,-3.19669l2.77249,-0.19048l2.0752,-2.34803l1.97218,2.48752l2.93589,0.78339l-0.87332,2.8324z" fill="#ffffff" stroke="none" stroke-width="0" stroke-linecap="butt"/><path d="M430.18054,190.89794l1.61084,-0.11932" fill="none" stroke="#ffffff" stroke-width="1" stroke-linecap="round"/><path d="M432.79157,189.6617l-0.98616,1.27927" fill="none" stroke="#ffffff" stroke-width="1" stroke-linecap="round"/><path d="M430.77715,189.40642l-0.77559,0.05966" fill="none" stroke="#ffffff" stroke-width="1" stroke-linecap="round"/><path d="M431.06806,189.11382l0.55172,-0.54836" fill="none" stroke="#ffffff" stroke-width="1" stroke-linecap="round"/><g fill="none" stroke="#ffffff" stroke-width="1" stroke-linecap="round"><path d="M436.0136,189.53345l0.87724,1.35628"/><path d="M436.75511,190.97991l1.5955,0.25183"/><path d="M437.18422,188.68969l0.42431,0.65197"/><path d="M438.75058,189.67776l-0.74578,-0.22115"/></g><g fill="none" stroke="#ffffff" stroke-width="1" stroke-linecap="round"><path d="M440.74575,194.05563l-0.71416,1.4488"/><path d="M440.48691,196.93292l-0.60236,-1.49874"/><path d="M442.07056,194.62759l-0.34195,0.69869"/><path d="M441.83323,195.7254l0.19277,0.75361"/></g><g fill="none" stroke="#ffffff" stroke-width="1" stroke-linecap="round"><path d="M437.24734,199.98929l1.61166,-0.10776"/><path d="M437.23446,199.82684l-0.99532,1.27216"/><path d="M438.25169,201.36873l0.776,-0.05409"/><path d="M437.40303,202.20362l0.55565,-0.54439"/></g><g fill="none" stroke="#ffffff" stroke-width="1" stroke-linecap="round"><path d="M431.4969,199.86258l1.03166,1.24287"/><path d="M430.00691,199.69582l1.61409,0.06115"/><path d="M430.96757,201.48474l0.49852,0.59714"/><path d="M430.56047,201.41752l-0.76672,-0.13129"/></g><g fill="none" stroke="#ffffff" stroke-width="1" stroke-linecap="round"><path d="M429.192,195.463l-0.7086,1.45153"/><path d="M429.3393,195.53268l-0.6081,-1.49642"/><path d="M427.49568,195.64766l-0.33927,0.7"/><path d="M427.38952,195.24894l-0.19566,-0.75288"/></g></g></g></svg>